<svg width="18" height="20" viewBox="0 0 18 20" fill="none" xmlns="http://www.w3.org/2000/svg">
<path d="M1.5 4.99984H3.16667M3.16667 4.99984H16.5M3.16667 4.99984V16.6665C3.16667 17.1085 3.34226 17.5325 3.65482 17.845C3.96738 18.1576 4.39131 18.3332 4.83333 18.3332H13.1667C13.6087 18.3332 14.0326 18.1576 14.3452 17.845C14.6577 17.5325 14.8333 17.1085 14.8333 16.6665V4.99984H3.16667ZM5.66667 4.99984V3.33317C5.66667 2.89114 5.84226 2.46722 6.15482 2.15466C6.46738 1.8421 6.89131 1.6665 7.33333 1.6665H10.6667C11.1087 1.6665 11.5326 1.8421 11.8452 2.15466C12.1577 2.46722 12.3333 2.89114 12.3333 3.33317V4.99984M7.33333 9.1665V14.1665M10.6667 9.1665V14.1665" stroke="white" stroke-width="1.66667" stroke-linecap="round" stroke-linejoin="round"/>
</svg>
